<?xml version="1.0" encoding="utf-8"?>
<!-- Generator: Adobe Illustrator 22.0.1, SVG Export Plug-In . SVG Version: 6.00 Build 0)  -->
<svg version="1.1" id="Layer_1" xmlns="http://www.w3.org/2000/svg" xmlns:xlink="http://www.w3.org/1999/xlink" x="0px" y="0px"
	 viewBox="0 0 800 800" style="enable-background:new 0 0 800 800;" xml:space="preserve">
<style type="text/css">
	.st0{fill:#254860;}
</style>
<path id="productivity" class="st0" d="M400,580c78.6,0,142.5-63.9,142.5-142.5S478.6,295,400,295s-142.5,63.9-142.5,142.5
	S321.4,580,400,580L400,580z M400,595c-87,0-157.5-70.5-157.5-157.5c0-87,70.5-157.5,157.5-157.5s157.5,70.5,157.5,157.5
	C557.5,524.5,487,595,400,595L400,595z M400,610c95.1,0,172.5-77.4,172.5-172.5S495.1,265,400,265s-172.5,77.4-172.5,172.5
	S304.9,610,400,610L400,610z M400,625c-103.6,0-187.5-83.9-187.5-187.5C212.5,333.9,296.4,250,400,250s187.5,83.9,187.5,187.5
	C587.5,541.1,503.6,625,400,625L400,625z M405.8,535h-5.4c-3.1,0-5.6-2.5-5.6-5.6v-13.2c-12.7-1.3-23-5.7-30.5-13
	c-8.7-8.4-13.1-20-13.1-34.4c0-3.1,2.5-5.6,5.6-5.6h5.3c3.1,0,5.6,2.5,5.6,5.6c0,10,2.9,17.5,9,23c6.2,5.6,14.7,8.4,25.8,8.4
	c9,0,16.1-2.4,21.8-7.4c5.5-4.8,8.1-10.6,8.1-17.6c0-4.9-0.9-8.9-2.6-12c-1.8-3.1-5-6-9.5-8.8c-5-3.1-12.7-6.4-22.7-9.9
	c-11.1-3.8-19.1-7.5-24.6-11.3c-5.7-3.9-10-8.7-12.8-14.1c-2.8-5.4-4.2-11.9-4.2-19.3c0-12.3,4.1-22.3,12.3-29.8
	c6.8-6.3,15.4-10.1,25.6-11.3v-13.2c0-3.1,2.5-5.6,5.6-5.6h5.4c3.1,0,5.6,2.5,5.6,5.6v13.3c11.1,1.6,20,6,26.5,13.4
	c7.5,8.4,11.2,19.8,11.2,33.8c0,3.1-2.5,5.6-5.6,5.6h-5.3c-3.1,0-5.6-2.5-5.6-5.6c0-9.7-2.6-17.2-8-22.9c-5.3-5.6-12.4-8.3-21.8-8.3
	c-9.3,0-16.4,2.3-21.8,7.1c-5.2,4.6-7.7,10.5-7.7,17.9c0,5.4,0.8,9.6,2.5,12.4c1.6,2.9,4.6,5.6,8.7,8.1c4.6,2.8,11.2,5.7,19.8,8.6
	c9.3,3.2,16.3,5.9,21.3,8.5c5.3,2.6,9.8,5.8,13.3,9.3c3.7,3.7,6.5,7.8,8.3,12.4c1.8,4.5,2.7,9.8,2.7,15.7c0,12-4,21.8-11.9,29.3
	c-6.6,6.3-15.2,10.2-25.5,11.7v13.4C411.4,532.5,408.9,535,405.8,535z M422.5,176v-31h7.5c12.4,0,22.5-10.1,22.5-22.5
	S442.4,100,430,100h-60c-12.4,0-22.5,10.1-22.5,22.5S357.6,145,370,145h7.5v31c-134.2,11.5-240,124.3-240,261.5
	C137.5,582.2,255.3,700,400,700s262.5-117.8,262.5-262.5C662.5,300.3,556.7,187.5,422.5,176z M407.5,145v30.2
	c-2.5-0.1-5-0.2-7.5-0.2s-5,0.1-7.5,0.2V145H407.5z M362.5,122.5c0-4.1,3.4-7.5,7.5-7.5h60c4.1,0,7.5,3.4,7.5,7.5s-3.4,7.5-7.5,7.5
	h-60C365.9,130,362.5,126.6,362.5,122.5z M400,685c-136.5,0-247.5-111-247.5-247.5C152.5,301,263.5,190,400,190
	s247.5,111,247.5,247.5C647.5,574,536.5,685,400,685z M174.1,238.5c-8.8-8.8-8.8-23,0-31.8c8.8-8.8,23-8.8,31.8,0l17.2,17.2
	c-3.9,3.2-7.6,6.5-11.3,9.9l-16.5-16.5c-2.9-2.9-7.7-2.9-10.6,0c-2.9,2.9-2.9,7.7,0,10.6l16.4,16.4c-3.5,3.6-6.9,7.3-10.2,11.1
	L174.1,238.5z M590.7,236.2c-3.6-3.4-7.4-6.8-11.2-10l19.5-19.5c8.8-8.8,23-8.8,31.8,0c8.8,8.8,8.8,23,0,31.8L611.4,258
	c-3.2-3.8-6.6-7.5-10-11.2l18.9-18.9c2.9-2.9,2.9-7.7,0-10.6c-2.9-2.9-7.7-2.9-10.6,0L590.7,236.2z M211.5,321.3
	c-2.1,3.6-6.7,4.8-10.2,2.7c-3.6-2.1-4.8-6.7-2.7-10.2c2.1-3.6,6.7-4.8,10.2-2.7C212.3,313.1,213.6,317.7,211.5,321.3z M211.5,553.8
	c2.1,3.6,0.8,8.2-2.7,10.2c-3.6,2.1-8.2,0.8-10.2-2.7c-2.1-3.6-0.8-8.2,2.7-10.2C204.8,548.9,209.4,550.2,211.5,553.8z M197.5,437.5
	c0,4.1-3.4,7.5-7.5,7.5h-22.5c-4.1,0-7.5-3.4-7.5-7.5s3.4-7.5,7.5-7.5H190C194.1,430,197.5,433.4,197.5,437.5z M286.5,636.3
	c-2.1,3.6-6.7,4.8-10.2,2.7c-3.6-2.1-4.8-6.7-2.7-10.2c2.1-3.6,6.7-4.8,10.2-2.7C287.3,628.1,288.6,632.7,286.5,636.3z M601.5,561.3
	c-2.1,3.6-6.7,4.8-10.2,2.7c-3.6-2.1-4.8-6.7-2.7-10.2c2.1-3.6,6.7-4.8,10.2-2.7C602.3,553.1,603.6,557.7,601.5,561.3z M601.5,313.8
	c2.1,3.6,0.8,8.2-2.7,10.2c-3.6,2.1-8.2,0.8-10.2-2.7c-2.1-3.6-0.8-8.2,2.7-10.2C594.8,308.9,599.4,310.2,601.5,313.8z M526.5,246.2
	c-2.1,3.6-6.7,4.8-10.2,2.7c-3.6-2.1-4.8-6.7-2.7-10.2c2.1-3.6,6.7-4.8,10.2-2.7C527.3,238.1,528.6,242.7,526.5,246.2z M640,437.5
	c0,4.1-3.4,7.5-7.5,7.5H610c-4.1,0-7.5-3.4-7.5-7.5s3.4-7.5,7.5-7.5h22.5C636.6,430,640,433.4,640,437.5z M407.5,205v22.5
	c0,4.1-3.4,7.5-7.5,7.5c-4.1,0-7.5-3.4-7.5-7.5V205c0-4.1,3.4-7.5,7.5-7.5C404.1,197.5,407.5,200.9,407.5,205z M526.5,628.8
	c2.1,3.6,0.8,8.2-2.7,10.2c-3.6,2.1-8.2,0.8-10.2-2.7c-2.1-3.6-0.8-8.2,2.7-10.2C519.8,623.9,524.4,625.2,526.5,628.8z M407.5,647.5
	V670c0,4.1-3.4,7.5-7.5,7.5c-4.1,0-7.5-3.4-7.5-7.5v-22.5c0-4.1,3.4-7.5,7.5-7.5C404.1,640,407.5,643.4,407.5,647.5z M286.5,238.7
	c2.1,3.6,0.8,8.2-2.7,10.2c-3.6,2.1-8.2,0.8-10.2-2.7c-2.1-3.6-0.8-8.2,2.7-10.2C279.8,233.9,284.4,235.2,286.5,238.7z"/>
</svg>
